<?xml version="1.0" standalone="no"?><!DOCTYPE svg PUBLIC "-//W3C//DTD SVG 1.1//EN" "http://www.w3.org/Graphics/SVG/1.1/DTD/svg11.dtd"><svg t="1597982819727" class="icon" viewBox="0 0 1024 1024" version="1.1" xmlns="http://www.w3.org/2000/svg" p-id="6944" xmlns:xlink="http://www.w3.org/1999/xlink" width="200" height="200"><defs><style type="text/css">@font-face { font-family: element-icons; src: url("chrome-extension://moombeodfomdpjnpocobemoiaemednkg/fonts/element-icons.woff") format("woff"), url("chrome-extension://moombeodfomdpjnpocobemoiaemednkg/fonts/element-icons.ttf ") format("truetype"); }
</style></defs><path d="M388.8 162.9c12 0 21.6 9.7 21.7 21.7v239.6c0 12-9.7 21.6-21.7 21.7H149.2c-12 0-21.6-9.7-21.7-21.7V184.6c0-12 9.7-21.6 21.7-21.7h239.6m0-64.3H149.2c-22.8 0-44.7 9.1-60.8 25.2-16.1 16.1-25.2 38-25.2 60.8v239.6c0 22.8 9.1 44.7 25.2 60.8 16.1 16.1 38 25.2 60.8 25.2h239.6c47.5 0 86-38.5 86-86V184.6c0-22.8-9.1-44.7-25.2-60.8-16.1-16.2-38-25.2-60.8-25.2z m347 35.6c5.7 0 11.3 2.3 15.3 6.3l138.6 138.6c8.5 8.5 8.5 22.2 0 30.6L751.1 448.4c-8.5 8.5-22.2 8.5-30.6 0L581.9 309.7c-8.5-8.5-8.5-22.2 0-30.6l138.6-138.6c4-4.1 9.5-6.3 15.3-6.3m0-64.3c-22.8 0-44.7 9-60.8 25.2L536.4 233.6c-16.1 16.1-25.2 38-25.2 60.8 0 22.8 9.1 44.7 25.2 60.8L675 493.8c33.6 33.6 88 33.6 121.6 0l138.6-138.6c16.1-16.1 25.2-38 25.2-60.8 0-22.8-9.1-44.7-25.2-60.8L796.6 95c-16.1-16.1-38-25.2-60.8-25.1z m-347 536.7c12 0 21.6 9.7 21.7 21.7v239.6c0 12-9.7 21.6-21.7 21.7H149.2c-12 0-21.6-9.7-21.7-21.7V628.3c0-12 9.7-21.6 21.7-21.7h239.6m0-64.3H149.2c-22.8 0-44.7 9.1-60.8 25.2-16.1 16.1-25.2 38-25.2 60.8v239.6c0 47.5 38.5 86 86 86h239.6c22.8 0 44.7-9.1 60.8-25.2 16.1-16.1 25.2-38 25.2-60.8V628.3c0-22.8-9.1-44.7-25.2-60.8-16.1-16.1-38-25.2-60.8-25.2z m445.9 64.3c12 0 21.6 9.7 21.7 21.7v239.6c0 12-9.7 21.6-21.7 21.7H595.1c-12 0-21.6-9.7-21.7-21.7V628.3c0-12 9.7-21.6 21.7-21.7h239.6m0-64.3H595.1c-22.8 0-44.7 9.1-60.8 25.2-16.1 16.1-25.2 38-25.2 60.8v239.6c0 47.5 38.5 86 86 86h239.6c47.5 0 86-38.5 86-86V628.3c0-22.8-9.1-44.7-25.2-60.8-16.1-16.1-38-25.2-60.8-25.2z m0 0" p-id="6945" fill="#1296db"></path></svg>