<?xml version="1.0" standalone="no"?><!DOCTYPE svg PUBLIC "-//W3C//DTD SVG 1.1//EN" "http://www.w3.org/Graphics/SVG/1.1/DTD/svg11.dtd"><svg t="1597982786209" class="icon" viewBox="0 0 1024 1024" version="1.1" xmlns="http://www.w3.org/2000/svg" p-id="6192" xmlns:xlink="http://www.w3.org/1999/xlink" width="200" height="200"><defs><style type="text/css">@font-face { font-family: element-icons; src: url("chrome-extension://moombeodfomdpjnpocobemoiaemednkg/fonts/element-icons.woff") format("woff"), url("chrome-extension://moombeodfomdpjnpocobemoiaemednkg/fonts/element-icons.ttf ") format("truetype"); }
</style></defs><path d="M512 64.569598c-247.106957 0-447.430402 200.319351-447.430402 447.430402 0 247.106957 200.323445 447.430402 447.430402 447.430402s447.430402-200.323445 447.430402-447.430402C959.430402 264.888949 759.106957 64.569598 512 64.569598zM374.327454 649.668453c-38.013779 0-68.834738-30.815843-68.834738-68.833715s30.819936-68.834738 68.834738-68.834738c38.017872 0 68.837808 30.815843 68.837808 68.834738S412.345326 649.668453 374.327454 649.668453zM512 443.162192c-38.017872 0-68.834738-30.815843-68.834738-68.833715s30.815843-68.834738 68.834738-68.834738 68.834738 30.815843 68.834738 68.834738S550.017872 443.162192 512 443.162192zM649.672546 649.668453c-38.017872 0-68.837808-30.815843-68.837808-68.833715s30.819936-68.834738 68.837808-68.834738c38.013779 0 68.834738 30.815843 68.834738 68.834738S687.686325 649.668453 649.672546 649.668453z" p-id="6193" fill="#515151"></path></svg>